<?xml version="1.0" encoding="utf-8"?>
<!-- Generator: Adobe Illustrator 18.1.1, SVG Export Plug-In . SVG Version: 6.00 Build 0)  -->
<svg version="1.1" id="Instagram" xmlns="http://www.w3.org/2000/svg" xmlns:xlink="http://www.w3.org/1999/xlink" x="0px" y="0px"
	 viewBox="48 -46 100 100" enable-background="new 48 -46 100 100" xml:space="preserve">
<path fill="none" stroke="#FFFFFF" stroke-width="6.7693" stroke-miterlimit="10" d="M133-41H63c-5.5,0-10,4.5-10,10v70
	c0,5.5,4.5,10,10,10h70c5.5,0,10-4.5,10-10v-70C143-36.5,138.5-41,133-41z M74.6,12c0-12.9,10.5-23.4,23.4-23.4
	c12.9,0,23.4,10.5,23.4,23.4S111,35.5,98,35.5C85.1,35.5,74.6,25,74.6,12z M129.5-16h-8.1c-1.9,0-3.5-1.6-3.5-3.5v-8.1
	c0-1.9,1.6-3.5,3.5-3.5h8.1c1.9,0,3.5,1.5,3.5,3.5v8.1C133-17.6,131.4-16,129.5-16z"/>
</svg>
