<?xml version="1.0" encoding="utf-8"?>
<!-- Generator: Adobe Illustrator 18.1.1, SVG Export Plug-In . SVG Version: 6.00 Build 0)  -->
<svg version="1.1" id="VK" xmlns="http://www.w3.org/2000/svg" xmlns:xlink="http://www.w3.org/1999/xlink" x="0px" y="0px"
	 viewBox="48 -46 100 100" enable-background="new 48 -46 100 100" xml:space="preserve">
<path fill="none" stroke="#FFFFFF" stroke-width="5" stroke-miterlimit="10" d="M134.5,14.9c0,0,7.5,7.4,9.3,10.8
	c0.1,0.1,0.1,0.1,0.1,0.2c0.8,1.3,0.9,2.2,0.6,3c-0.6,1.2-2.7,1.8-3.4,1.9c0,0-12.8,0-13.2,0c-0.9,0-2.8-0.2-5.2-1.8
	c-1.8-1.2-3.5-3.3-5.3-5.3c-2.6-3-4.8-5.5-7-5.5c-0.3,0-0.6,0-0.8,0.1c-1.7,0.5-3.8,2.9-3.8,9.4c0,2-1.6,3.2-2.7,3.2c0,0-5.8,0-6,0
	c-2.1,0-12.8-0.7-22.3-10.7C63.1,7.7,52.7-16.9,52.6-17.1c-0.7-1.6,0.7-2.5,2.2-2.5h13.3c1.8,0,2.4,1.1,2.8,2
	c0.5,1.1,2.2,5.6,5.1,10.6c4.6,8.1,7.5,11.4,9.8,11.4c0.4,0,0.8-0.1,1.2-0.3c3-1.6,2.4-12.2,2.3-14.4c0-0.4,0-4.7-1.5-6.8
	c-1.1-1.5-2.9-2.1-4.1-2.3c0.3-0.4,0.9-1.1,1.8-1.5c2-1,5.7-1.2,9.4-1.2h2c4,0.1,5,0.3,6.4,0.7c2.9,0.7,3,2.6,2.7,9
	c-0.1,1.8-0.2,3.9-0.2,6.3c0,0.5,0,1.1,0,1.7c-0.1,3.3-0.2,7,2.1,8.5c0.3,0.2,0.6,0.3,1,0.3c0.8,0,3.2,0,9.7-11.2
	c2.9-4.9,5.1-10.8,5.2-11.2c0.1-0.2,0.5-0.9,1-1.2c0.4-0.2,0.8-0.3,1.1-0.3h15.7c1.7,0,2.9,0.3,3.1,0.9c0.4,1-0.1,4.2-7.2,13.9
	c-1.2,1.6-2.3,3-3.2,4.2C127.7,8,127.7,8.4,134.5,14.9z"/>
</svg>
