<?xml version="1.0" encoding="utf-8"?>
<!-- Generator: Adobe Illustrator 18.1.1, SVG Export Plug-In . SVG Version: 6.00 Build 0)  -->
<svg version="1.1" id="Слой_1" xmlns="http://www.w3.org/2000/svg" xmlns:xlink="http://www.w3.org/1999/xlink" x="0px" y="0px"
	 viewBox="0 0 151.2 127.3" enable-background="new 0 0 151.2 127.3" xml:space="preserve">
<g>
	<defs>
		<rect id="SVGID_1_" y="0" width="151.2" height="127.3"/>
	</defs>
	<clipPath id="SVGID_2_">
		<use xlink:href="#SVGID_1_"  overflow="visible"/>
	</clipPath>
	<path clip-path="url(#SVGID_2_)" fill-rule="evenodd" clip-rule="evenodd" fill="#FFFFFF" d="M34.4,24c-2.1-0.7-3.8-0.9-5.4-0.7
		c-1.6,0.3-2.9,1.4-3.3,2.6c-1.2,3.3,1.6,4.1,1.6,4.1s1.2-1.9,2.6-2.7c0.5-0.3,1-0.6,1.8-0.7c0.8-0.2,1.7-0.2,2.6-0.1
		c0.9,0,1.7,0.2,2.7,1c1,0.7,2,1.9,2.7,2.6c0.8,0.7,1.2,0.8,1.3,0.1c0.2-0.8,0-2.5-1.1-3.6C38.6,25.3,36.5,24.6,34.4,24 M19,118
		c0.2-0.5,0.4-1.1,0.6-1.7c0,0,0,0-0.1-0.1v0c-0.4-0.5-0.5-1-0.6-1.5c-0.1-0.5-0.1-0.9,0.1-1.9c0.1-0.4,0.2-0.9,0.3-1.3
		c-0.9-0.6-1.8-1.2-2.7-1.8c-0.7,1.4-1.3,2.2-1.7,3.1c-0.7,1.4-0.8,1.9,0,2.6C16.1,116.3,17.7,117.2,19,118 M57.8,77.8
		c0.2-0.4-0.2-0.9-0.4-0.5c-3.3,3.5-11.6,6.4-16.2,7.4c-8,1.7-16.6,1-22.8-5c-0.3-0.2-0.9-0.7-0.9,0.2c0,2.8,2,4.5,4.3,5.8
		c0.4,0.2,0.8,0.4,1.2,0.6c-0.2,0-0.2,0-0.5,0.3c-3,3.5-5.5,6.3-7,8.3c-0.9,1.3-1.5,1.9-1.4,2.6c0.1,1.1,0.9,2,1.9,2.7
		c2.6-4.4,5.4-8.5,8-12.9c0.2-0.4,0.4-0.5,0.1-0.6c0.6,0.2,1.3,0.4,2,0.6c-0.1,0-0.1,0.1-0.3,0.3c-2.7,4.6-6.4,10.3-8.7,14.6
		c-1,1.8-1.5,2.8-1.3,3.5c0.4,1.4,2.6,2.5,4.2,3.2c2-7,4.5-14.3,6.4-21.1c0.1-0.2,0.1-0.3,0-0.4c0.8,0.2,1.5,0.3,2.4,0.4
		c-0.3,0-0.3,0.1-0.4,0.4c-2,6.8-4.2,12.8-6.1,19.8c-1.9,7.1-1.3,7.1,5.9,10.3c0.8,0.3,1.3,0.5,1.8,0.5c0.5,0,1.1-0.2,2.1-0.5
		c12-4.7,9.1-5.1,6.8-18c-0.7-3.8-1.4-7.8-2.2-11.7c0-0.2-0.2-0.3-0.4-0.3c1,0,2-0.1,3-0.2c-0.6,0.1-0.7,0.3-0.5,0.8
		c1.6,6.8,3.5,13.6,4.4,20.5c0,0.2,0,0.4,0.1,0.6c2-0.8,3.9-1.6,5.1-2.1c1.6-0.7,1-1.4,0.5-3.1c-0.5-1.6-1.4-3.5-2.3-5.8
		c-1-2.4-2-4.7-2.7-6.5c-0.9-2-1.4-3.2-1.8-4.2c-0.2-0.5-0.4-0.6-0.9-0.6c0.4-0.1,0.8-0.1,1.2-0.2c0.7-0.1,1.3-0.3,2-0.5
		c-0.6,0.2-0.6,0.3-0.3,1c1.9,4.3,4,8.7,5.9,13c1.3-1.1,2.8-2.5,2.9-3.3c0.1-1.4-3.8-7.5-6.1-10.8c-0.3-0.4-0.4-0.5-0.8-0.4
		C51.4,85,55.9,82,57.8,77.8 M29.9,88c0.7,0.1,1.4,0.2,2.1,0.2c-0.3,0-0.3,0.1-0.3,0.4c-0.1,0.5-0.2,1.1-0.3,1.8
		c-0.2,1.2-0.4,2.5-0.7,3.1c-0.3,0.6-0.8,0.6-0.9-0.1c-0.2-0.7,0-1.9,0.1-3.1c0.1-0.7,0.1-1.3,0.2-1.9C30.1,88.2,30.2,88.1,29.9,88
		 M32.7,88.3c0.8,0,1.5,0.1,2.3,0.1c-0.3,0-0.3,0.1-0.3,0.5c0.1,0.6,0.1,1.3,0.2,2.3c0.2,2.1,0.4,5,0.2,6.5c-0.1,1.5-0.6,1.5-1,0
		c-0.4-1.5-0.7-4.4-0.9-6.4c-0.1-1.1-0.2-2-0.3-2.6C33,88.4,33,88.3,32.7,88.3 M42.7,117.3c0,0.7,0,1.4,0,2.2c1.6-0.6,3.8-1.4,5-2.1
		c1.5-0.9,1.1-1.5,0.6-3c-0.3-1-0.7-1.9-1-2.7c-0.3,0.2-0.7,0.3-1,0.5c-1.2,0.5-1.9,0.7-2.2,1c-0.4,0.2-0.3,0.5-0.3,0.9
		C43.9,115.6,43.6,116.6,42.7,117.3 M34,121c1.9-0.7,3.9-1.5,5.8-2.3c0,2.8-0.2,3.7-1.2,4.4c-2.8,1.6-8.5,4.3-9.3,4.3
		c-0.4,0-0.9-0.2-1.7-0.6c-0.9-0.5-2.1-1.2-3.3-2c-4.7-3-4.9-2.2-2.8-6.8c0.8,0.6,1.6,1.1,2.7,1.7c1.1,0.6,2.3,1.3,3.2,1.7
		c1,0.5,1.8,0.7,2.7,0.7c0.9,0,1.7-0.2,2.8-0.7C33.2,121.3,33.6,121.2,34,121 M49.4,110.6c0.4-0.2,0.7-0.4,1-0.6
		c1.1-0.7,1.7-1.1,1.9-1.7c0.2-0.6,0-1.4-0.2-2.1c-0.2-0.7-0.5-1.4-0.5-1.8c0-0.4,0.3-0.6,0.7-0.9c0.2-0.2,0.4-0.4,0.6-0.5
		c1.7,3.2,2.2,4.4,1.8,5.3c-0.3,0.9-1.5,1.6-4.7,3.5C49.7,111.4,49.6,111,49.4,110.6 M14.4,109.7c0.3-0.5,0.5-0.7,0.7-1.2
		c-0.2-0.1-0.3-0.3-0.5-0.4c-0.8-0.7-1.3-1.2-1.2-2.4c0.1-0.8,0.5-1.8,1.4-3.6c-0.1-0.1-0.3-0.3-0.4-0.4c-0.8,1.6-1.4,2.9-2,4.1
		c-0.9,1.7-0.2,1.8,1.1,3C13.7,109.1,14,109.4,14.4,109.7 M52.3,70.5c0.6-0.4,1-0.5,0.7,0.1c-3.4,6.2-30.6,14.9-34.5,2.1
		c-0.1-1.1,0.7-2.2,1.7-0.9C26.7,80.7,44.8,75.4,52.3,70.5 M56.7,71.5c2.4,9.7-24.6,14.2-27.4,11.5C29,82.9,29,82.7,29,82.6
		c0.1-0.3,0.4-0.3,0.7-0.3c7.8-0.5,20.2-2.9,25.2-8.9c0.6-0.7,1.1-2,1.2-2.3C56.2,70.8,56.4,70.9,56.7,71.5 M17.7,74.6
		c-0.7,5,7.7,6.9,11.4,6.7c1.3-0.1,0.9-0.7-0.1-0.8c-4.6-0.6-8.4-2.1-10.6-5.5C18,74.5,17.8,74.2,17.7,74.6 M65.6,53.4
		c0.3-1.1,0.4-1.5,0.7-2.1c0.5-1,1.3-1.5,1.7-2.3c0.4-0.6,0.6-1.4,0.7-2.2c0-0.7-0.1-1.3-0.3-1.8c-0.6-1.9-0.5-2.8-0.3-3.3
		c0.3-0.8,1-1.1,1-3c0.1-1-0.2-2-0.7-2.8c-0.9-1.2-1.4-1.6-1.2-2.3c0.5-2.2,0.5-5.8-2.7-7.4c-0.6-0.3-0.4-1.1-0.2-1.3
		c2-3-2.2-7.9-2.9-9.2c-1.8-3.5-3.4-5.9-5.1-7.6C55,6.7,51,4.5,47,2.5c-2-0.9-2.3-0.8-0.2,0.4c3.3,1.9,6.4,3.9,7.7,5.1
		c1.7,1.6,3.3,4.1,5.1,7.6c0.7,1.3,5,6.2,2.9,9.2c-0.2,0.2-0.4,1,0.2,1.3c3.1,1.6,3.1,5.1,2.7,7.4c-0.2,0.7,0.4,1.2,1.2,2.3
		c0.4,0.8,0.8,1.8,0.7,2.8c0,0.6-0.1,1.2-0.3,1.7c-0.3,0.8-0.7,0.6-0.9,1.3c-0.2,1.1,0.4,3.1,0.4,3.4c0.2,0.5,0.3,1.2,0.3,1.8
		c-0.1,1.3-0.7,2.5-1.6,3.3c-1.1,1.1-1,1.3-1.4,2.8c-0.3,1-0.8,1.6-1.6,2.1c-0.8,0.5-0.7,0.9,0.5,0.7C63.8,55.4,65.2,54.8,65.6,53.4
		 M52.3,51.1c-1.2-0.1-2.4-1.4-2.4-2.6c0-1.2,1.2-1.8,2.5-1.6c1.4,0.2,2.3,1.1,2.3,2.3C54.7,50.3,53.5,51.1,52.3,51.1 M52.1,43.2
		c-3.1-0.1-3.3-4.4-2.6-5.1c1.1-1,5.4,0.5,5.3,2.7C54.7,42.2,53.5,43.2,52.1,43.2 M52.9,35c-2.2-0.1-3.6-2.8-3.3-4.6
		c0.5-3.2,3-1.1,4.6,0.6C56.2,33,55.5,35,52.9,35 M5.8,26.8c0.2-0.2,0.4-0.4,0.6-0.5c-0.1,0.8-0.1,1.6-0.1,2.3
		c-0.3,0-0.7-0.1-0.8-0.3C5.2,27.8,5.3,27.3,5.8,26.8 M5.5,43.2c-1.2,0.7-3.6,0.8-3.8-1.8c-0.1-2.6,3.3-2.7,3.9-2.7
		c0.1,0,0.3,0,0.4,0C5.7,40.1,5.5,41.6,5.5,43.2 M7.1,35.1c0,0.1-1,0.8-1.7,0.8c-0.8,0.2-1.6,0-2.1-0.5c-0.5-0.4-0.6-1.3-0.4-1.7
		c0.8-1.5,3-1,3.4-1.9c0.1,0.7,0.2,1.3,0.4,1.8C7.1,34.4,7.2,34.7,7.1,35.1 M11.9,39.9c-0.1,0.7-1.3,0.9-2.4,0.1
		c-1.7-1.1-1.4-3.2-0.8-4.4c0.9-1.7,3.6-2.3,3.6-2.3s-1-0.3-1.3-0.5c-0.4-0.4,0-1.3,0.6-1.3c0.1,0,0.3,0.3,0.9,0.2
		c0.6-0.2,0.8-0.6,0.8-1c0-0.6-0.8-1-1.3-0.8c-0.5,0.2-0.4,0.3-0.7,0.4c0.4-0.7,1.2-0.9,1.8-0.9c0.9,0.1,1.7,0.8,1.8,1.7
		c0.2,1.1-0.1,1.3-1,1.9c-0.2,0.2,1,0.7,0.7,0.9C12.6,35.8,12.2,38.2,11.9,39.9 M37.4,29.6c-0.6-0.4-1.5-1.1-2.2-1.6
		c-0.9-0.5-1.5-0.7-2.2-0.8c-0.6-0.1-1.2,0.1-1.6,0.1c-0.4,0.1-0.7,0.2-0.8,0.3c-0.2,0.1-0.3,0.3-0.3,0.4c0,0.1,0.1,0.2,0.2,0.2
		c0.1,0,0.2,0.1,0.2,0.3c0,0.1,0,0.4,0,0.6c0,0.2,0.1,0.5,0.3,0.8c0.2,0.1,0.5,0.3,0.9,0.3c1.4,0.1,1.3-1.6,1.3-1.6
		c0-0.1,0.1-0.1,0.2-0.1c0.2,0.1,0.4,0.2,0.6,0.4c0.3,0.2,0.5,0.5,0.8,0.9c0.3,0.4,0.6,0.9,1.2,1.1c0.6,0.1,1.4-0.1,1.7-0.3
		C38.2,30.3,38,30.1,37.4,29.6 M2.6,28.3c-0.6,1.3-0.3,2.7,0,3.6c0.3,0.7,1,0.5,0.6-0.3c-0.4-0.7-0.7-1.9-0.4-3.2
		C3,27.8,2.9,27.7,2.6,28.3 M11.6,10.5C9.2,14.1,6,21.1,5.4,24c-0.3,1.2,1,1.3,1.2,0C6.8,21.7,9.4,14.6,11.6,10.5
		C12,10,11.9,10,11.6,10.5 M33.1,0.5c0.4,0,0.8,0,1.2-0.1c1.2-0.2,2.4-0.7,3.5-0.4c2.3,0.7,4.5,1.8,6.2,3.5c0.8,0.8,1.4,1.4,2.4,2.1
		c7,5.1,5.4,5.1,8.1,13.9c0.4,1.5-0.7,2.3-1.8,2.3c-0.3-0.1-1,0.2-0.4,0.8c0.5,0.5,1.5,0.6,1.9,0.9c1.7,1.3,1,3.4-1,3.2
		c-4.2-0.3-3.8-4.1-5.1-6.2c-0.9-1.6-1.6-0.5-1.3,0.3c1.1,3.6-0.6,5.7-1.1,8.5c-0.6,3.4,0.2,4.3,0.4,5.9c0.2,1.9-1.4,2.9,0.4,7.1
		c1.4,2.6-1.2,5.4,1.3,9.4c0.5,0.8,1.1,1.6,1.8,2.1c1.9,1.6,1.3,1.3,1.9,5.5c0.1,0.7,0.3,1.4,0.5,2.1c0.2,0.8,0.6,1.7,0.9,2.7
		c1.9,5.6-24.9,16.4-32,6.9c-1.1-1.4-3.9-2-5.5-3c-4.3-2.6-7.6-7.3-9.3-12.6c-0.4-0.9-0.5-1.2-1-1.5c-2.5-1.3-5.5-4.7-4.4-11
		c0,0,0.2-0.9,0.2-1.2c0-0.7-0.2-1.9-0.4-2.6C0.3,38.6,0,37.9,0,37c0-0.9,0.4-1.8,0.8-2.5c0.1-0.2,0.2-0.1,0.1,0.1
		c-0.2,0.6-0.4,1.3-0.4,1.9c0,0.9,0.3,1.7,0.5,2.5c0.1,0.5,0.3,1.4,0.3,2.1c0.1,1-0.3,2-0.4,3.2c-0.3,5,2.6,7.4,4.9,8.5
		C6.8,53,7,53.9,7.3,54.7c2.1,6.3,6,12,11.5,14.2c0.5,0.2,1.1,0.4,1.6,0.5c0.9,0.2,1.9,0.4,2.9,0.4c5.6,0.2,11.9-0.5,14.3-3.8
		c0.7-1-0.5-1.2-1.3-1.3c-1.8,0-3.9,0.1-6.1,0.3c-0.8,0-1.6,0.1-2.5,0.1c-5.7,0.1-11.4-0.5-13.1-4.5c-1.8-6.6,9.7-3.3,9.8-4.8
		c0.1-1.9-5.5-1.8-7.3-1.7c-1.9,0.1-1.9-2.1-1.9-2.1s1-1.4,5.8-1.2c1.3,0,4.6,0.7,6.6,0.6c1.8-0.1,2.6-1-0.2-0.9
		c-1.5,0-2.7-0.9-4.7-1.9c-2.4-1.2-4.6-0.1-4.6-0.1s-0.9-0.1-1.5-0.5c-0.8-0.5-0.9-1.6-0.3-2.5c0.7-1,1.1-0.5,2-0.8
		c0.5-0.2,0.7-0.8,1.1-1.2c0.7,0.2,1.3,0.5,2.1,0.6c2.6,0.3,3-2.8,0.3-3.3c-2.9-0.6-8.2,0.2-5.7-5.8c0.6-1.5,3.8-8.2,3.1-9.5
		c-1.1-1.8-8.8-4.4-10.4-0.8c-0.1-3.7,3-11.8,5.1-14.8l0,0v0h0v0l0,0v0h0v0h0v0v0h0v0l0,0l0,0v0h0v0l0,0l0,0v0l0,0h0v0l0,0l0,0
		c2.6-3.1,6.4-5.3,10.1-6.9C27.1,1.5,30.2,0.7,33.1,0.5"/>
	<path clip-path="url(#SVGID_2_)" fill-rule="evenodd" clip-rule="evenodd" fill="#FFFFFF" d="M139.6,76h3.5c1.2,0,2.1,1,2.1,2.2
		c0,1.3-0.9,2.3-2.2,2.3h-3.4V76z M78.3,97.5v4.9h0.8v-3.6h0l1.6,2.3h0.3l1.6-2.3h0v3.6h0.9v-4.9h-1L81,100l-1.8-2.4H78.3z
		 M84.4,102c0,0.3,0.2,0.5,0.5,0.5c0.3,0,0.6-0.3,0.6-0.5c0-0.3-0.2-0.5-0.6-0.5C84.6,101.4,84.4,101.6,84.4,102 M88.8,102.5
		c0.5,0,0.9-0.2,1.2-0.5c0.3-0.2,0.5-0.6,0.5-1c0-0.3-0.1-0.6-0.3-0.8c-0.1-0.2-0.3-0.3-0.5-0.4v0c0.2-0.1,0.2-0.2,0.3-0.3
		c0.1-0.2,0.1-0.3,0.1-0.5c0-0.4-0.1-0.6-0.3-0.9c-0.3-0.2-0.7-0.4-1.1-0.4h-2.6v4.9H88.8z M89.6,101c0,0.2-0.1,0.4-0.2,0.5
		c-0.2,0.1-0.4,0.3-0.6,0.3H87v-1.5h1.8c0.2,0,0.4,0.1,0.5,0.3C89.5,100.6,89.6,100.7,89.6,101 M89.3,98.9c0,0.1,0,0.3-0.1,0.4
		c-0.1,0.1-0.2,0.2-0.4,0.2H87v-1.2h1.6c0.2,0,0.4,0.1,0.4,0.2C89.3,98.6,89.3,98.7,89.3,98.9 M91,102c0,0.3,0.3,0.5,0.6,0.5
		c0.3,0,0.5-0.3,0.5-0.5c0-0.3-0.2-0.5-0.5-0.5C91.3,101.4,91,101.6,91,102 M101.3,97.4c-0.8,0-1.5,0.3-1.9,0.8
		c-0.4,0.4-0.7,1.1-0.7,1.7c0,0.7,0.3,1.3,0.7,1.7c0.4,0.5,1.1,0.8,1.9,0.8c0.8,0,1.4-0.3,1.9-0.8c0.5-0.5,0.7-1.1,0.7-1.8
		c0-0.7-0.3-1.3-0.8-1.8C102.7,97.7,102,97.4,101.3,97.4 M99.6,100c0-0.5,0.2-0.9,0.5-1.2c0.3-0.4,0.8-0.5,1.3-0.5
		c0.5,0,0.9,0.2,1.2,0.5c0.3,0.3,0.5,0.8,0.5,1.3c0,0.5-0.2,0.9-0.5,1.2c-0.3,0.4-0.7,0.5-1.2,0.5c-0.5,0-1-0.2-1.3-0.5
		C99.7,100.9,99.6,100.5,99.6,100 M104.5,97.5v4.9h0.8v-3.6l1.7,2.3h0.3l1.6-2.3h0v3.6h0.9v-4.9h-1l-1.7,2.4l-1.7-2.4H104.5z
		 M113.1,97.4c-0.7,0-1.4,0.3-1.9,0.8c-0.5,0.4-0.7,1.1-0.7,1.7c0,0.7,0.3,1.3,0.7,1.7c0.5,0.5,1.2,0.8,1.9,0.8
		c0.8,0,1.5-0.3,1.9-0.8c0.4-0.5,0.7-1.1,0.7-1.8c0-0.7-0.3-1.3-0.8-1.8C114.5,97.7,113.9,97.4,113.1,97.4 M111.4,100
		c0-0.5,0.2-0.9,0.4-1.2c0.3-0.4,0.8-0.5,1.3-0.5c0.5,0,1,0.2,1.3,0.5c0.3,0.3,0.5,0.8,0.5,1.3c0,0.5-0.2,0.9-0.5,1.2
		c-0.3,0.4-0.8,0.5-1.3,0.5c-0.5,0-0.9-0.2-1.3-0.5C111.6,100.9,111.4,100.5,111.4,100 M119.9,97.5v1.9h-2.6v-1.9h-0.9v4.9h0.9v-2.3
		h2.6v2.3h0.8v-4.9H119.9z M124,97.4c-0.7,0-1.5,0.3-1.9,0.8c-0.4,0.4-0.7,1.1-0.7,1.7c0,0.7,0.3,1.3,0.7,1.7
		c0.4,0.5,1.2,0.8,1.9,0.8c0.8,0,1.4-0.3,1.9-0.8c0.4-0.5,0.7-1.1,0.7-1.8c0-0.7-0.3-1.3-0.7-1.8C125.4,97.7,124.7,97.4,124,97.4
		 M122.3,100c0-0.5,0.2-0.9,0.4-1.2c0.3-0.4,0.8-0.5,1.3-0.5c0.5,0,0.9,0.2,1.3,0.5c0.3,0.3,0.5,0.8,0.5,1.3c0,0.5-0.2,0.9-0.5,1.2
		c-0.3,0.4-0.8,0.5-1.3,0.5c-0.5,0-1-0.2-1.3-0.5C122.4,100.9,122.3,100.5,122.3,100 M127.9,100c0-0.5,0.2-1,0.5-1.3
		c0.3-0.3,0.7-0.5,1.2-0.5c0.6,0,1,0.2,1.5,0.6l0.5-0.6c-0.6-0.5-1.2-0.8-2-0.8c-0.8,0-1.4,0.3-1.8,0.7c-0.5,0.5-0.8,1.1-0.8,1.8
		c0,0.7,0.3,1.3,0.8,1.8c0.5,0.4,1.1,0.7,1.8,0.7c0.8,0,1.4-0.3,2-0.8l-0.5-0.6c-0.5,0.4-0.9,0.6-1.5,0.6c-0.5,0-0.9-0.2-1.3-0.5
		C128.1,101,127.9,100.5,127.9,100 M134.6,97.4c-0.8,0-1.5,0.3-1.9,0.8c-0.4,0.4-0.7,1.1-0.7,1.7c0,0.7,0.2,1.3,0.7,1.7
		c0.5,0.5,1.1,0.8,1.9,0.8c0.8,0,1.4-0.3,1.9-0.8c0.4-0.5,0.7-1.1,0.7-1.8c0-0.7-0.3-1.3-0.8-1.8C136,97.7,135.3,97.4,134.6,97.4
		 M132.9,100c0-0.5,0.2-0.9,0.5-1.2c0.3-0.4,0.7-0.5,1.3-0.5c0.5,0,0.9,0.2,1.3,0.5c0.3,0.3,0.5,0.8,0.5,1.3c0,0.5-0.2,0.9-0.5,1.2
		c-0.3,0.4-0.8,0.5-1.3,0.5c-0.5,0-1-0.2-1.3-0.5C133,100.9,132.9,100.5,132.9,100 M140.4,102.5c0.5,0,0.9-0.2,1.2-0.5
		c0.3-0.2,0.5-0.6,0.5-1c0-0.3-0.1-0.6-0.3-0.8c-0.1-0.2-0.3-0.3-0.5-0.4v0c0.1-0.1,0.3-0.2,0.3-0.3c0.1-0.2,0.1-0.3,0.1-0.5
		c0-0.4-0.1-0.6-0.3-0.9c-0.3-0.2-0.7-0.4-1.1-0.4h-2.6v4.9H140.4z M141.2,101c0,0.2-0.1,0.4-0.2,0.5c-0.1,0.1-0.3,0.3-0.6,0.3h-1.7
		v-1.5h1.8c0.2,0,0.5,0.1,0.6,0.3C141.2,100.6,141.2,100.7,141.2,101 M141,98.9c0,0.1,0,0.3-0.1,0.4c-0.1,0.1-0.3,0.2-0.4,0.2h-1.7
		v-1.2h1.6c0.2,0,0.3,0.1,0.4,0.2C140.9,98.6,141,98.7,141,98.9 M144.5,97.5l-2.2,4.9h0.9l0.4-0.9h2.6l0.4,0.9h0.9l-2.2-4.9H144.5z
		 M144.9,98.4L144.9,98.4l1,2.3h-2L144.9,98.4z M95.8,97.5l-2.2,4.9h0.9l1.7-4.1h0.1l1.7,4.1h1l-2.2-4.9H95.8z M79.2,88.5h-0.9v4.9
		h0.8l2.8-3.6v3.6h0.8v-4.9H82l-2.8,3.6V88.5z M83.6,88.5v4.9h0.8v-3.6h0l1.6,2.3h0.3l1.6-2.3h0v3.6H89v-4.9h-1l-1.7,2.4l-1.7-2.4
		H83.6z M89.8,93.4h4v-0.8h-3v-1.4h2.6v-0.8h-2.6v-1.1h2.9v-0.8h-3.8V93.4z M97.9,88.5v1.9h-2.6v-1.9h-0.9v4.9h0.9v-2.2h2.6v2.2h0.8
		v-4.9H97.9z M100.4,88.5h-0.8v4.9h0.8l2.8-3.6v3.6h0.8v-4.9h-0.8l-2.8,3.6V88.5z M129.6,41.9v4.9h0.8v-2.2h1.1l1.4,2.2h1l-1.7-2.6
		l1.5-2.3h-1l-1.2,1.9h-1.1v-1.9H129.6z M115.9,41.9l-2.2,4.9h0.9l1.7-4.1h0.1l1.7,4.1h1l-2.2-4.9H115.9z M140.7,41.9h-0.8v4.9h0.8
		l2.8-3.6v3.6h0.8v-4.9h-0.8l-2.8,3.6V41.9z M135.3,41.9h-0.8v4.9h0.8l2.8-3.6v3.6h0.8v-4.9h-0.8l-2.8,3.6V41.9z M125.1,44.4
		c0-0.5,0.2-1,0.5-1.3c0.3-0.3,0.8-0.5,1.2-0.5c0.6,0,1,0.2,1.5,0.6l0.5-0.6c-0.6-0.5-1.2-0.8-2-0.8c-0.8,0-1.4,0.3-1.8,0.8
		c-0.4,0.5-0.7,1.1-0.7,1.8c0,0.8,0.3,1.4,0.7,1.8c0.5,0.5,1.1,0.7,1.8,0.7c0.8,0,1.4-0.3,2-0.8l-0.5-0.6c-0.5,0.4-0.9,0.6-1.5,0.6
		c-0.5,0-0.9-0.2-1.2-0.5C125.3,45.3,125.1,44.9,125.1,44.4 M122.9,45.1c0,0.3-0.1,0.6-0.3,0.8c-0.2,0.2-0.4,0.2-0.7,0.2h-1.5v-2
		h1.4c0.3,0,0.6,0.1,0.8,0.3C122.8,44.6,122.9,44.8,122.9,45.1 M123.8,45.1c0-0.5-0.2-0.9-0.5-1.3c-0.3-0.3-0.8-0.5-1.4-0.5h-1.5
		v-1.3h-0.9v4.9h2.3c0.5,0,1-0.2,1.3-0.5C123.6,46,123.8,45.6,123.8,45.1 M109.2,46.9h3.9V46h-3v-1.4h2.6v-0.8h-2.6v-1.1h2.9v-0.8
		h-3.8V46.9z M105.7,42.7h2.9v-0.8h-3.8v4.9h0.9V42.7z M103.2,41.9v1.9h-2.6v-1.9h-0.9v4.9h0.9v-2.2h2.6v2.2h0.9v-4.9H103.2z
		 M96.4,42.8L96.4,42.8l1,2.3h-2L96.4,42.8z M95.9,41.9l-2.2,4.9h0.9l0.4-0.9h2.6l0.4,0.9h0.9l-2.2-4.9H95.9z M89.7,41.9h-1.1
		l1.7,2.4l-1.8,2.6h1l1.4-2l1.4,2h1.1l-1.9-2.6l1.7-2.4h-1l-1.3,1.8L89.7,41.9z M85.1,44.7v-2h1.5c0.3,0,0.6,0.1,0.7,0.3
		c0.2,0.2,0.3,0.4,0.3,0.7c0,0.5-0.4,1-1,1H85.1z M88,42.6c-0.3-0.4-0.9-0.7-1.4-0.7h-2.4v4.9h0.9v-1.3h1.5c0.5,0,1-0.2,1.3-0.5
		c0.3-0.3,0.5-0.8,0.5-1.2C88.5,43.3,88.3,42.9,88,42.6 M80.9,42.8L80.9,42.8l1,2.3h-2L80.9,42.8z M80.5,41.9l-2.2,4.9h0.9l0.4-0.9
		h2.6l0.4,0.9h1l-2.2-4.9H80.5z M140.8,41h2.4v0.6h-2.4V41z M134.4,58.6h3.5c1.2,0,2-1,2-2.2c0-1.3-0.9-2.3-2.2-2.3h-3.4V58.6z
		 M122.1,54.2h-4.3h-0.3v-0.2v-2v-0.3h0.3h11.3h0.3V52v2v0.2h-0.3h-4.3v10.1v0.3h-0.3h-2.1h-0.3v-0.3V54.2z M113.6,59.7l-2-5.1
		l-2.1,5.1H113.6z M104.7,64.1l5.5-12.3l0-0.2h0.2h2.3h0.2l0.1,0.2l5.4,12.3l0.2,0.4h-0.4h-2.3h-0.2l-0.1-0.2l-1-2.1h-6.2l-1,2.1
		l0,0.2h-0.2h-2.3h-0.4L104.7,64.1z M102.6,64.5h-9.8h-0.3v-0.3V52v-0.3h0.3h9.5h0.3V52v2v0.3h-0.3h-7.1v2.3h6.3h0.3v0.3v2v0.3h-0.3
		h-6.3V62h7.3h0.2v0.3v2v0.3H102.6z M82.9,54.2h-4.3h-0.3v-0.2v-2v-0.3h0.3h11.3h0.3V52v2v0.2h-0.3h-4.3v10.1v0.3h-0.3h-2.1h-0.3
		v-0.3V54.2z M142.7,56.5c0,2.7-2.2,4.7-4.9,4.7h-3.5v3v0.3h-0.3h-2.3h-0.2v-0.3V52v-0.3h0.2h6c0.8,0,1.5,0.2,2.1,0.4
		C141.7,52.9,142.7,54.6,142.7,56.5 M120.2,82.7V70.5v-0.3h0.3h2.4h0.1l0.1,0.1l4.1,5.8l4-5.8l0.1-0.1h0.1h2.3h0.3v0.3v12.3V83h-0.3
		h-2.1h-0.3v-0.2v-8.3l-3.6,5.1l-0.1,0.1h-0.1h-0.8h-0.1l-0.1-0.1l-3.7-5.1v8.3V83h-0.3h-2h-0.3V82.7z M113.8,78.2l-2-5.2l-2.1,5.2
		H113.8z M104.9,82.6l5.5-12.3l0-0.2h0.2h2.3h0.2l0.1,0.2l5.4,12.3l0.2,0.4h-0.4H116h-0.2l-0.1-0.1l-1-2.1h-6.2l-0.9,2.1l-0.1,0.1
		h-0.2h-2.3h-0.4L104.9,82.6z M97,77.2h3.5c1.2,0,2.1-1,2.1-2.2c0-1.3-0.9-2.3-2.2-2.3H97V77.2z M105.3,75c0,2.7-2.2,4.7-4.9,4.7H97
		v3V83h-0.3h-2.2h-0.3v-0.2V70.5v-0.3h0.3h6c0.8,0,1.5,0.2,2.1,0.5C104.3,71.4,105.3,73.1,105.3,75 M87.9,80.5v-7.8h-4.1l-1.1,7.8
		H87.9z M89.6,83.1l0.1,1.5h2.5v-3.4v-0.4v-0.3h-0.3h-1.4v-10v-0.3h-0.3h-8.9L80,80.5h-1.7v0.3v0.4v3.4h2.5L81,83L89.6,83.1
		L89.6,83.1z M148.8,70.2h2.2h0.2v0.3v12.3V83h-0.2h-2.2h-0.3v-0.2V70.5v-0.3H148.8z M147.9,78.2c0-2.7-2.2-4.7-4.9-4.7h-3.5v-3
		v-0.3h-0.3h-2.2h-0.3v0.3v12.3V83h0.3h6c0.8,0,1.5-0.2,2.1-0.4C146.9,81.7,147.9,80.1,147.9,78.2"/>
</g>
</svg>
